<?xml version="1.0" encoding="utf-8"?>
<!-- Generator: Adobe Illustrator 16.0.0, SVG Export Plug-In . SVG Version: 6.00 Build 0)  -->
<!DOCTYPE svg PUBLIC "-//W3C//DTD SVG 1.1//EN" "http://www.w3.org/Graphics/SVG/1.1/DTD/svg11.dtd">
<svg version="1.1" id="Layer_1" xmlns="http://www.w3.org/2000/svg" xmlns:xlink="http://www.w3.org/1999/xlink" x="0px" y="0px"
	 width="245.386px" height="231.317px" viewBox="0 0 245.386 231.317" enable-background="new 0 0 245.386 231.317"
	 xml:space="preserve">
<path fill="#231F20" d="M171.909,123.208v50.989h-37v-61.771c0-13.294-7.691-21.521-19.92-21.521
	c-13.293,0-22.08,9.498-23.08,22.998v60.294h-36v-114h36v18.687c8-13.294,21.097-20.044,37.98-20.25
	c8.706,0,16.372,2.062,22.674,5.858c2.494-7.983,6.891-15.502,13.216-21.826c7.357-7.357,16.329-12.111,25.772-14.284
	C146.117-11.207,77.13-9.382,33.876,33.872c-45.169,45.169-45.168,118.401,0,163.569s118.401,45.168,163.569,0
	c19.817-19.818,31.172-45.039,33.599-70.922C212.619,137.427,188.909,136.326,171.909,123.208"/>
<path fill="#231F20" d="M203.597,73.867c1.249,0,3.075,0.339,4.677,1.938c2.579,2.578,2.579,6.778-0.001,9.357
	c-1.601,1.601-3.427,1.936-4.676,1.936c-1.251,0-3.075-0.337-4.677-1.938c-2.579-2.577-2.579-6.777-0.004-9.352
	C200.521,74.206,202.346,73.867,203.597,73.867 M203.597,38.693c-10.694,0-21.389,4.081-29.55,12.239
	c-16.318,16.321-16.318,42.779,0,59.1c8.161,8.16,18.855,12.239,29.55,12.239c10.695,0,21.39-4.079,29.55-12.239
	c16.318-16.32,16.318-42.778,0-59.1C224.986,42.774,214.292,38.693,203.597,38.693"/>
</svg>
