<?xml version="1.0" encoding="utf-8"?>
<!-- Generator: Adobe Illustrator 16.0.0, SVG Export Plug-In . SVG Version: 6.00 Build 0)  -->
<!DOCTYPE svg PUBLIC "-//W3C//DTD SVG 1.1//EN" "http://www.w3.org/Graphics/SVG/1.1/DTD/svg11.dtd">
<svg version="1.1" id="Layer_1" xmlns="http://www.w3.org/2000/svg" xmlns:xlink="http://www.w3.org/1999/xlink" x="0px" y="0px"
	 width="86.965px" height="87.643px" viewBox="0 0 86.965 87.643" enable-background="new 0 0 86.965 87.643" xml:space="preserve">
<g>
	<g>
		<path fill-rule="evenodd" clip-rule="evenodd" d="M44.037,13.007c-16.58,0-30.021,13.44-30.021,30.021
			c0,5.672,1.574,10.977,4.308,15.502l-5.418,16.106l16.621-5.321c4.301,2.378,9.247,3.734,14.51,3.734
			c16.581,0,30.021-13.442,30.021-30.021C74.059,26.447,60.618,13.007,44.037,13.007z M44.037,68.02
			c-5.076,0-9.803-1.522-13.75-4.132l-9.604,3.074l3.122-9.28c-2.992-4.121-4.759-9.184-4.759-14.653
			c0-13.781,11.211-24.993,24.991-24.993c13.781,0,24.992,11.212,24.992,24.993C69.029,56.809,57.818,68.02,44.037,68.02z
			 M58.113,49.85c-0.753-0.412-4.449-2.407-5.143-2.689c-0.693-0.281-1.199-0.428-1.739,0.32c-0.54,0.746-2.073,2.417-2.538,2.912
			c-0.467,0.495-0.916,0.541-1.669,0.128c-0.751-0.411-3.191-1.313-6.02-4.033c-2.202-2.116-3.646-4.683-4.064-5.466
			c-0.419-0.784-0.003-1.184,0.395-1.55c0.357-0.331,0.8-0.867,1.2-1.3c0.399-0.433,0.54-0.747,0.814-1.25
			c0.274-0.501,0.164-0.954-0.014-1.344c-0.178-0.39-1.569-4.219-2.15-5.776s-1.229-1.326-1.676-1.343
			c-0.447-0.017-0.956-0.1-1.467-0.119c-0.511-0.02-1.349,0.141-2.079,0.882c-0.731,0.74-2.78,2.519-2.921,6.29
			c-0.141,3.771,2.468,7.517,2.832,8.042c0.364,0.526,4.982,8.699,12.657,12.061c7.676,3.36,7.716,2.336,9.124,2.261
			c1.409-0.074,4.604-1.685,5.31-3.449s0.763-3.299,0.583-3.626C59.368,50.473,58.865,50.261,58.113,49.85z"/>
	</g>
</g>
</svg>
